<?xml version="1.0" encoding="UTF-8" standalone="no"?>
<!DOCTYPE svg PUBLIC "-//W3C//DTD SVG 1.1//EN"
 "http://www.w3.org/Graphics/SVG/1.1/DTD/svg11.dtd">
<!-- Generated by graphviz version 9.0.0 (20230911.1827)
 -->
<!-- Pages: 1 -->
<svg width="1151pt" height="154pt"
 viewBox="0.00 0.00 1151.00 154.00" xmlns="http://www.w3.org/2000/svg" xmlns:xlink="http://www.w3.org/1999/xlink">
<g id="graph0" class="graph" transform="scale(1 1) rotate(0) translate(4 150)">
<polygon fill="white" stroke="none" points="-4,4 -4,-150 1147,-150 1147,4 -4,4"/>
<!-- 4945936304 -->
<g id="node1" class="node">
<title>4945936304</title>
<polygon fill="none" stroke="black" points="319.88,-27.5 319.88,-63.5 511.88,-63.5 511.88,-27.5 319.88,-27.5"/>
<text text-anchor="middle" x="330.88" y="-40.7" font-family="Times,serif" font-size="14.00">e</text>
<polyline fill="none" stroke="black" points="341.88,-28 341.88,-63.5"/>
<text text-anchor="middle" x="384" y="-40.7" font-family="Times,serif" font-size="14.00">data &#45;6.0000</text>
<polyline fill="none" stroke="black" points="426.12,-28 426.12,-63.5"/>
<text text-anchor="middle" x="469" y="-40.7" font-family="Times,serif" font-size="14.00">grad &#45;2.0000</text>
</g>
<!-- 4946263744+ -->
<g id="node5" class="node">
<title>4946263744+</title>
<ellipse fill="none" stroke="black" cx="576" cy="-72.5" rx="27" ry="18"/>
<text text-anchor="middle" x="576" y="-67.45" font-family="Times,serif" font-size="14.00">+</text>
</g>
<!-- 4945936304&#45;&gt;4946263744+ -->
<g id="edge4" class="edge">
<title>4945936304&#45;&gt;4946263744+</title>
<path fill="none" stroke="black" d="M512.05,-61.75C521.28,-63.33 530.2,-64.85 538.29,-66.23"/>
<polygon fill="black" stroke="black" points="537.53,-69.65 547.98,-67.89 538.71,-62.75 537.53,-69.65"/>
</g>
<!-- 4945936304* -->
<g id="node2" class="node">
<title>4945936304*</title>
<ellipse fill="none" stroke="black" cx="255.75" cy="-45.5" rx="27" ry="18"/>
<text text-anchor="middle" x="255.75" y="-40.45" font-family="Times,serif" font-size="14.00">*</text>
</g>
<!-- 4945936304*&#45;&gt;4945936304 -->
<g id="edge1" class="edge">
<title>4945936304*&#45;&gt;4945936304</title>
<path fill="none" stroke="black" d="M283.22,-45.5C290.59,-45.5 299.09,-45.5 308.13,-45.5"/>
<polygon fill="black" stroke="black" points="307.89,-49 317.89,-45.5 307.89,-42 307.89,-49"/>
</g>
<!-- 4298024592 -->
<g id="node3" class="node">
<title>4298024592</title>
<polygon fill="none" stroke="black" points="4.88,-55.5 4.88,-91.5 187.88,-91.5 187.88,-55.5 4.88,-55.5"/>
<text text-anchor="middle" x="15.88" y="-68.7" font-family="Times,serif" font-size="14.00">a</text>
<polyline fill="none" stroke="black" points="26.88,-56 26.88,-91.5"/>
<text text-anchor="middle" x="66.75" y="-68.7" font-family="Times,serif" font-size="14.00">data 2.0000</text>
<polyline fill="none" stroke="black" points="106.62,-56 106.62,-91.5"/>
<text text-anchor="middle" x="147.25" y="-68.7" font-family="Times,serif" font-size="14.00">grad 6.0000</text>
</g>
<!-- 4298024592&#45;&gt;4945936304* -->
<g id="edge6" class="edge">
<title>4298024592&#45;&gt;4945936304*</title>
<path fill="none" stroke="black" d="M188.01,-57.37C198.67,-55.48 209.04,-53.63 218.3,-51.99"/>
<polygon fill="black" stroke="black" points="218.65,-55.48 227.88,-50.28 217.42,-48.59 218.65,-55.48"/>
</g>
<!-- 4946263744 -->
<g id="node4" class="node">
<title>4946263744</title>
<polygon fill="none" stroke="black" points="639,-54.5 639,-90.5 827.25,-90.5 827.25,-54.5 639,-54.5"/>
<text text-anchor="middle" x="650.38" y="-67.7" font-family="Times,serif" font-size="14.00">d</text>
<polyline fill="none" stroke="black" points="661.75,-55 661.75,-90.5"/>
<text text-anchor="middle" x="701.62" y="-67.7" font-family="Times,serif" font-size="14.00">data 4.0000</text>
<polyline fill="none" stroke="black" points="741.5,-55 741.5,-90.5"/>
<text text-anchor="middle" x="784.38" y="-67.7" font-family="Times,serif" font-size="14.00">grad &#45;2.0000</text>
</g>
<!-- 4946263984* -->
<g id="node10" class="node">
<title>4946263984*</title>
<ellipse fill="none" stroke="black" cx="890.25" cy="-99.5" rx="27" ry="18"/>
<text text-anchor="middle" x="890.25" y="-94.45" font-family="Times,serif" font-size="14.00">*</text>
</g>
<!-- 4946263744&#45;&gt;4946263984* -->
<g id="edge9" class="edge">
<title>4946263744&#45;&gt;4946263984*</title>
<path fill="none" stroke="black" d="M827.49,-88.75C836.27,-90.28 844.77,-91.76 852.51,-93.1"/>
<polygon fill="black" stroke="black" points="851.66,-96.51 862.11,-94.78 852.86,-89.61 851.66,-96.51"/>
</g>
<!-- 4946263744+&#45;&gt;4946263744 -->
<g id="edge2" class="edge">
<title>4946263744+&#45;&gt;4946263744</title>
<path fill="none" stroke="black" d="M603.31,-72.5C610.49,-72.5 618.72,-72.5 627.47,-72.5"/>
<polygon fill="black" stroke="black" points="627.29,-76 637.29,-72.5 627.29,-69 627.29,-76"/>
</g>
<!-- 4298024640 -->
<g id="node6" class="node">
<title>4298024640</title>
<polygon fill="none" stroke="black" points="0,-0.5 0,-36.5 192.75,-36.5 192.75,-0.5 0,-0.5"/>
<text text-anchor="middle" x="11.38" y="-13.7" font-family="Times,serif" font-size="14.00">b</text>
<polyline fill="none" stroke="black" points="22.75,-1 22.75,-36.5"/>
<text text-anchor="middle" x="64.88" y="-13.7" font-family="Times,serif" font-size="14.00">data &#45;3.0000</text>
<polyline fill="none" stroke="black" points="107,-1 107,-36.5"/>
<text text-anchor="middle" x="149.88" y="-13.7" font-family="Times,serif" font-size="14.00">grad &#45;4.0000</text>
</g>
<!-- 4298024640&#45;&gt;4945936304* -->
<g id="edge8" class="edge">
<title>4298024640&#45;&gt;4945936304*</title>
<path fill="none" stroke="black" d="M193,-34.91C201.81,-36.42 210.32,-37.88 218.06,-39.2"/>
<polygon fill="black" stroke="black" points="217.21,-42.61 227.66,-40.85 218.4,-35.71 217.21,-42.61"/>
</g>
<!-- 4298024688 -->
<g id="node7" class="node">
<title>4298024688</title>
<polygon fill="none" stroke="black" points="318.75,-82.5 318.75,-118.5 513,-118.5 513,-82.5 318.75,-82.5"/>
<text text-anchor="middle" x="329.75" y="-95.7" font-family="Times,serif" font-size="14.00">c</text>
<polyline fill="none" stroke="black" points="340.75,-83 340.75,-118.5"/>
<text text-anchor="middle" x="384" y="-95.7" font-family="Times,serif" font-size="14.00">data 10.0000</text>
<polyline fill="none" stroke="black" points="427.25,-83 427.25,-118.5"/>
<text text-anchor="middle" x="470.12" y="-95.7" font-family="Times,serif" font-size="14.00">grad &#45;2.0000</text>
</g>
<!-- 4298024688&#45;&gt;4946263744+ -->
<g id="edge7" class="edge">
<title>4298024688&#45;&gt;4946263744+</title>
<path fill="none" stroke="black" d="M513.41,-83.41C522.21,-81.85 530.7,-80.34 538.42,-78.98"/>
<polygon fill="black" stroke="black" points="538.77,-82.47 548,-77.28 537.55,-75.58 538.77,-82.47"/>
</g>
<!-- 4946263840 -->
<g id="node8" class="node">
<title>4946263840</title>
<polygon fill="none" stroke="black" points="640.12,-109.5 640.12,-145.5 826.12,-145.5 826.12,-109.5 640.12,-109.5"/>
<text text-anchor="middle" x="650.38" y="-122.7" font-family="Times,serif" font-size="14.00">f</text>
<polyline fill="none" stroke="black" points="660.62,-110 660.62,-145.5"/>
<text text-anchor="middle" x="702.75" y="-122.7" font-family="Times,serif" font-size="14.00">data &#45;2.0000</text>
<polyline fill="none" stroke="black" points="744.88,-110 744.88,-145.5"/>
<text text-anchor="middle" x="785.5" y="-122.7" font-family="Times,serif" font-size="14.00">grad 4.0000</text>
</g>
<!-- 4946263840&#45;&gt;4946263984* -->
<g id="edge5" class="edge">
<title>4946263840&#45;&gt;4946263984*</title>
<path fill="none" stroke="black" d="M826.6,-110.81C835.76,-109.16 844.62,-107.56 852.67,-106.1"/>
<polygon fill="black" stroke="black" points="853.09,-109.58 862.31,-104.36 851.84,-102.7 853.09,-109.58"/>
</g>
<!-- 4946263984 -->
<g id="node9" class="node">
<title>4946263984</title>
<polygon fill="none" stroke="black" points="953.25,-81.5 953.25,-117.5 1143,-117.5 1143,-81.5 953.25,-81.5"/>
<text text-anchor="middle" x="965.38" y="-94.7" font-family="Times,serif" font-size="14.00">L</text>
<polyline fill="none" stroke="black" points="977.5,-82 977.5,-117.5"/>
<text text-anchor="middle" x="1019.62" y="-94.7" font-family="Times,serif" font-size="14.00">data &#45;8.0000</text>
<polyline fill="none" stroke="black" points="1061.75,-82 1061.75,-117.5"/>
<text text-anchor="middle" x="1102.38" y="-94.7" font-family="Times,serif" font-size="14.00">grad 1.0000</text>
</g>
<!-- 4946263984*&#45;&gt;4946263984 -->
<g id="edge3" class="edge">
<title>4946263984*&#45;&gt;4946263984</title>
<path fill="none" stroke="black" d="M917.69,-99.5C924.84,-99.5 933.03,-99.5 941.74,-99.5"/>
<polygon fill="black" stroke="black" points="941.51,-103 951.51,-99.5 941.51,-96 941.51,-103"/>
</g>
</g>
</svg>
